<?xml version="1.0" encoding="utf-8"?>
<!-- Generator: Adobe Illustrator 23.0.3, SVG Export Plug-In . SVG Version: 6.00 Build 0)  -->
<svg version="1.1" id="Layer_1" xmlns="http://www.w3.org/2000/svg" xmlns:xlink="http://www.w3.org/1999/xlink" x="0px" y="0px"
	 viewBox="0 0 390 62" style="enable-background:new 0 0 390 62;" xml:space="preserve">
<style type="text/css">
	.st0{fill:#FFFFFF;}
	.st1{fill:none;}
</style>
<g>
	<g>
		<g>
			<g>
				<g>
					<path class="st0" d="M255.6,41c-6.3-2-11.4-4.4-15.2-7.3h15c1.1,0,1.5-1.1,1.5-2.2c0-1.1-0.4-2.2-1.5-2.2h-17.5v-1.7
						c0-0.5-0.2-0.9-0.7-1.1l2.5,0c0.4,0,0.8-0.1,1.1-0.2c0.1,0.4,0.2,0.7,0.3,0.9c0.3,0.4,0.9,0.6,1.2,0.5
						c3.8-0.4,7.2-0.8,10.2-1.2c0.1,0.4,0.2,0.9,0.2,0.9c0.2,0.9,1,1.6,2.3,1.3c1.2-0.3,1.8-1.3,1.4-2.5c-0.1-0.2-1.5-5.1-1.9-6.2
						c-0.3-0.9-0.8-1.6-2.1-1.5c-1.3,0.1-1.9,1.4-1.6,2.4c0.1,0.4,0.5,1.5,0.7,2.1c-1,0.1-2.3,0.1-3.9,0.2c2.5-2.8,5-6.6,7.7-11.9
						c0.3-0.6,0.4-1.7-0.8-2.4c-1.6-0.9-2.7,0-3,0.6c-0.9,2-1.9,3.8-3,5.6c-0.5-0.5-1.2-1.2-2-1.9c0,0,1.4-1.6,2.3-3
						c0.6-1,1.1-2,1.3-2.9c0.4-1.4,0-2.3-0.9-2.6c-0.9-0.4-1.9-0.3-2.5,0.8c-1,1.9-2.1,3.6-3.4,5.1l0,0c-0.3-0.1-1-0.2-1.5,0.2v-0.2
						c0-1.5-0.7-2.4-2.1-2.4h-2.2l0.5-1.6c0.2-0.6,0-1.2-0.5-1.7c-0.6-0.5-1.6-0.6-1.9-0.6c-0.7,0-1.2,0.4-1.4,0.9l-1.1,3.1h-1.5
						c-1.1,0-1.7,0.5-2,1.4c-0.2-0.4-0.5-0.7-1.4-1c-0.9-0.2-1.8-0.1-2.2,0.6c-0.3,0.7-2.4,4.7-2.8,5.3c-0.3-0.3-1-1.1-1.7-1.7
						c0.5-0.5,1.2-1.4,1.9-2.7c0.7-1,1.1-2,1.3-2.9c0.1-0.4,0.1-0.9,0.1-1.2c-0.1-0.7-0.4-1.1-1.1-1.4c-1.4-0.5-2.1,0-2.5,0.8
						c-0.8,1.7-1.8,3.3-2.9,4.7c-0.2-0.1-0.5-0.3-0.7-0.3c-0.6-0.2-1.5,0.4-2,1.1c-0.6,0.7-0.7,1.7-0.5,2c0.2,0.3,1.2,1.1,2.2,1.9
						c1.2,1,2.7,2.5,3.6,3.5c-1.1,1.7-2.2,3.2-3.4,4.6c-0.4,0-0.8,0-1.2,0c-1.1,0.1-1.6,0.5-1.6,1.3c0,1.3,0.2,2.2,0.5,2.6
						c0.3,0.4,0.7,0.5,1.3,0.5c3.4-0.4,6.5-0.8,9.3-1.2c0.1,0.4,0.2,0.7,0.2,1c0.2,0.9,0.9,1.6,2.3,1.3c1.2-0.3,1.8-1.2,1.4-2.3
						c-0.4-1.2-1.8-6.1-2.3-6.9c-0.3-0.5-0.9-0.7-1.8-0.8c0,0-0.1,0-0.2,0c1.3-1.9,2.6-4.1,3.9-6.7v12.2c0,1.5,0.7,2.4,2.1,2.4h2.5
						c-0.4,0.2-0.7,0.6-0.7,1.1v1.7c0,0-16.2,0-16.8,0c-1.1,0-1.5,1.1-1.5,2.2c0,1.1,0.4,2.2,1.5,2.2h13.9c-3,2.5-7.5,4.7-14.4,7.2
						c-1.4,0.5-1.4,2-1.1,3.3c0.5,2,1.8,1.9,2.9,1.5c6.3-2.4,12-5.6,15.4-8.7v7.7c0,1.1,1.1,1.5,2.2,1.5c1.1,0,2.2-0.4,2.2-1.5v-7.8
						c0.5,0.5,3.3,2.8,5.5,4.1c4.8,2.7,9.9,4.6,10.3,4.8c0.7,0.2,2.1,0,2.7-1.3C256.9,43.5,257.1,41.5,255.6,41z M241.8,14.7
						c0.1,0.1,3.3,2.6,4.6,3.9c-1.2,1.7-2.3,3.3-3.6,4.7h-0.7c-0.1,0-0.3,0-0.4,0V14.7z M222.6,22.8c0.5-0.6,1.1-1.3,1.6-2.1
						c0,0.4,0.5,1.6,0.6,2C224.2,22.7,223.4,22.7,222.6,22.8z M233.3,12.5c0-0.5,0.3-0.8,0.8-0.8h3.2c0.6,0,0.8,0.3,0.8,0.8v2.7
						h-4.8V12.5z M234.1,23c-0.6,0-0.8-0.3-0.8-0.8v-3.5h4.8v3.5c0,0.5-0.3,0.8-0.8,0.8H234.1z"/>
				</g>
				<path class="st0" d="M300.6,41.1c-5.3-2.9-8.3-5.2-11.3-8.1c-2.3-2.4-3.9-4.8-5-7.3h15.6c1.3,0,1.7-1.2,1.7-2.5
					s-0.4-2.5-1.7-2.5h-16.8c0-0.2,0-0.5,0-0.7v-7.9h14.7c1.3,0,1.8-1.3,1.8-2.6s-0.5-2.6-1.8-2.6h-33.8c-1.3,0-1.8,1.3-1.8,2.6
					c0,1.3,0.5,2.6,1.8,2.6h14v7.9c0,0.2,0,0.5,0,0.8h-16.6c-1.3,0-1.7,1.2-1.7,2.5c0,1.3,0.4,2.5,1.7,2.5H277
					c-0.9,3-2.7,5.7-5.2,8.1c-2.5,2.7-6.4,5.3-11.6,7.7c-0.9,0.4-1.1,1.7-0.7,2.9c0.4,1.5,1.3,1.9,2.5,1.9c2.1,0,5.8-2,11-6
					c3.7-2.7,6.2-5.8,7.6-9.3c2.5,3.7,5.2,6.8,8.3,9.2c4,3.2,7.2,5.2,9.4,5.9c0.8,0.3,2.3,0.3,3-1C302,43.6,301.8,41.8,300.6,41.1z"
					/>
				<path class="st0" d="M306.1,41.9c0,1.3,1.3,1.8,2.6,1.8c1.3,0,2.6-0.5,2.6-1.8l0-18.8c0-0.4,0.4-0.8,0.9-0.8h9.8v22.9
					c0,1.3,1.3,1.7,2.6,1.7c1.3,0,2.6-0.4,2.6-1.7V22.2h10.6c0.5,0,0.9,0.5,0.9,0.8l0,11.6c0,2.3-0.5,3.5-1.4,3.5
					c-1.2-0.1-2.7-0.6-4.7-1.6c-0.6-0.3-2,0.2-2.4,1.3c-0.4,1.2-0.7,2.4,0.3,3.3c1.1,1,3.5,1.7,7.1,2.1c2.4,0,3.6-0.4,4.7-1.3
					c1.1-0.9,1.6-2.8,1.6-6.5V19.8c0-1.6-1-2.4-2.5-2.4h-14.1v-3.7l17.4,0c1.3,0,1.7-1.2,1.7-2.5c0-1.3-0.4-2.5-1.7-2.5h-17.4V5.5
					c0-1.3-1.3-1.7-2.6-1.7c-1.3,0-2.6,0.4-2.6,1.7v3.1h-16.8c-1.3,0-1.7,1.2-1.7,2.5s0.4,2.5,1.7,2.5l16.8,0v3.7h-13.4
					c-1.5,0-2.5,0.8-2.5,2.4V41.9z"/>
				<g>
					<path class="st0" d="M362.7,33.6c-0.6-1.1-1.9-1.3-2.3-1.1c-0.3,0.2-1.1,0.5-2.2,1.1V17.3h3.7c1.2,0,1.6-1.1,1.6-2.3
						c0-1.2-0.4-2.3-1.6-2.3h-3.7V5.8c0-1.2-1.1-1.6-2.3-1.6c-1.2,0-2.3,0.4-2.3,1.6l0,6.9h-3.3c-1.2,0-1.6,1.1-1.6,2.3
						c0,1.2,0.4,2.3,1.6,2.3h3.3l0,18.7c-1.5,0.7-2.2,1-3.4,1.5c-1.3,0.6-1.9,2-1.2,3.6c0.6,1.3,1.8,1.6,2.9,1.2
						c1.1-0.4,3-1.3,5.6-2.7c2.2-1.1,4.2-2.4,5-3.1C363.1,35.9,363.3,34.7,362.7,33.6z"/>
					<path class="st0" d="M388.6,27c1.1,0,1.4-1,1.4-2.1c0-1.1-0.4-2.1-1.4-2.1h-25.8c-1.1,0-1.4,1-1.4,2.1c0,1.1,0.4,2.1,1.4,2.1h6
						c-1.2,1.3-2.7,2.4-5,3.7c-0.9,0.5-1,1.8-0.6,3.1c0.3,1,1,1.4,2.3,1.1c1.1-0.2,1.9-0.9,2.7-1.6h3.3c-1.7,1.7-4.3,3.3-8.1,5
						c-0.6,0.3-1.3,1.1-0.7,2.9c0.6,1.8,2.2,1.4,3.2,0.9c5.7-2.8,8.8-5.5,10.8-8.8h2.6c-1.2,3.3-4.2,5.8-9.4,8.1
						c-1.2,0.5-1.3,1.9-0.8,3.1c0.5,1.2,1.8,1.6,2.8,1.2c0.9-0.3,2.2-1.1,3.7-2.1c4-2.6,6.6-5.5,7.8-10.3h1.1c0.3,0,0.5,0.3,0.5,0.8
						c-0.1,3.9-0.3,5.6-0.6,6.4c-0.3,0.8-0.8,1.4-1.5,1.4c-1,0-1.3-0.4-2.1-0.6c-0.8-0.2-1.8,0.3-1.9,1.5c-0.2,1.5,0.3,2.4,1.1,2.8
						c0.6,0.3,1.8,0.5,3.9,0.5c1.9-0.2,3.2-0.7,3.8-1.6c0.2-0.3,1.6-2,1.7-12.1c0-2.2-0.8-3.3-2.3-3.3h-14.7c0.4-0.6,0.8-1.3,1.2-2
						H388.6z"/>
					<path class="st0" d="M368.2,20.9h17.4c1.8,0,2.7-0.8,2.8-2.4V7.3c-0.1-1.6-1-2.4-2.8-2.4h-17.4c-1.8,0-2.7,0.8-2.8,2.4v11.2
						C365.5,20.1,366.5,20.9,368.2,20.9z M369.8,9.5c0-0.5,0.3-0.7,0.7-0.7h12.8c0.4,0,0.7,0.2,0.7,0.7v1.6h-14.3V9.5z M369.8,14.7
						h14.3v1.6c0,0.5-0.3,0.7-0.7,0.7h-12.8c-0.4,0-0.7-0.2-0.7-0.7V14.7z"/>
				</g>
			</g>
			<g>
				<polygon class="st0" points="163.2,51.4 40.6,51.4 50.3,61.2 				"/>
				<path class="st0" d="M51.9,11.9v1.5c-2.3-1.5-4.3-2.3-7.1-2.3c-8.6,0-15.1,7.8-15.1,17.5c0,9.6,6.5,17.5,15.1,17.5
					c2.8,0,4.8-0.8,7.1-2.3v1.5h7.6V11.9H51.9z M44.8,38c-4.2,0-7.3-4.2-7.3-9.4c0-5.3,3.1-9.4,7.3-9.4c4.2,0,7.2,4.2,7.2,9.4
					C52,33.8,49,38,44.8,38z"/>
				<path class="st0" d="M112.4,11.9v19.6c0,3.7-2.5,6.8-6.2,6.8c-3.7,0-6.2-3.1-6.2-6.8V11.9h-7.6v19.6c0,8,5.5,14.6,13.5,14.6
					c3.7,0,6.4-2.1,6.4-2.1v1.2h7.6V11.9H112.4z"/>
				<path class="st0" d="M182.8,45.2V25.6c0-3.7,2.5-6.8,6.2-6.8c3.7,0,6.2,3.1,6.2,6.8v19.6h7.6V25.6c0-8-5.5-14.6-13.5-14.6
					c-3.7,0-6.4,2.1-6.4,2.1v-1.2h-7.6v33.3H182.8z"/>
				<path class="st0" d="M7.9,45.2V32.3h5.6l9.7,12.9h9.9L21.4,29.6c3.6-2.6,6-6.9,6-11.7C27.4,10,21,3.6,13.1,3.6H0v41.6H7.9z
					 M7.9,11.5h5.2c3.5,0,6.5,2.9,6.5,6.4c0,3.6-2.9,6.4-6.5,6.4H7.9V11.5z"/>
				<path class="st0" d="M140.4,37.3c-0.7,0.5-1.5,0.8-2.5,0.8c-1.2,0-3.6-0.9-3.6-4.1V19.8h6.5v-7.9h-6.5l0-8.3h-7.6l0,8.3h-4v7.9
					h4v14.4c0,7.4,5.6,11.9,11.2,11.9c2.1,0,5-0.7,7.4-2.1L140.4,37.3z"/>
				<polygon class="st0" points="78.3,27.5 91.2,11.9 80.6,11.9 71.6,23.5 71.6,0.8 63.8,0.8 63.8,45.2 71.6,45.2 71.6,31.5 
					82.7,45.2 93.3,45.2 				"/>
				<path class="st0" d="M157.8,11c-8.7,0-15,7.7-15,17.5c0,10.3,7.9,17.5,15.8,17.5c4,0,9.1-1.4,13.4-7.5l-6.7-3.9
					c-5.2,7.6-13.8,3.7-14.8-3.9l21.8,0C174.1,18.9,166.4,11,157.8,11z M164.4,24.2h-13.6C152.4,16.4,162.9,16,164.4,24.2z"/>
			</g>
		</g>
		<rect y="3.6" class="st1" width="390" height="47.8"/>
	</g>
</g>
</svg>
